<svg xmlns="http://www.w3.org/2000/svg" viewBox="0 0 600 300" role="img" aria-labelledby="title" color="#030304">
  <title id="title">Супер Симметрия</title>
  <path fill="currentColor" fill-rule="evenodd" d="
    M135 75 L135 111 L136 112 L283 112 L285 114 L285 186 L286 187 L359 187 L360 186 L360 151 L363 149 L435 149 L435 113 L434 112 L287 112 L285 110 L285 38 L284 37 L211 37 L210 38 L210 72 L208 74 L136 74 Z
    M245 135 L242 135 L241 134 L235 134 L234 135 L231 135 L227 137 L221 143 L220 142 L220 136 L219 135 L215 135 L215 204 L220 204 L220 177 L221 176 L225 181 L226 181 L228 183 L232 185 L244 185 L250 182 L256 176 L258 172 L258 170 L259 169 L259 166 L260 165 L260 154 L259 153 L259 150 L256 144 L254 142 L254 141 L252 139 L251 139 L249 137 Z
    M478 210 L474 210 L473 209 L470 209 L469 210 L465 210 L461 212 L455 218 L454 217 L453 210 L449 210 L449 279 L454 279 L454 253 L455 252 L461 258 L465 260 L469 260 L470 261 L473 261 L474 260 L478 260 L484 257 L489 252 L493 244 L493 239 L494 238 L494 232 L493 231 L493 226 L489 218 L484 213 Z
    M177 134 L176 135 L173 135 L169 137 L167 139 L166 139 L161 145 L159 149 L159 151 L158 152 L158 168 L162 176 L168 182 L174 185 L187 185 L195 181 L199 176 L201 171 L195 171 L194 174 L190 178 L186 180 L182 180 L181 181 L179 180 L175 180 L171 178 L166 173 L164 169 L164 167 L163 166 L163 163 L164 162 L203 162 L203 154 L202 153 L202 150 L201 149 L201 147 L200 145 L194 138 L188 135 L185 135 L184 134 Z
    M565 212 L559 218 L559 220 L558 221 L558 231 L560 235 L563 238 L564 238 L566 240 L568 240 L569 241 L573 241 L574 242 L557 259 L557 260 L563 260 L582 241 L590 241 L591 242 L591 260 L595 260 L596 259 L596 211 L595 210 L572 210 L571 211 L567 211 Z
    M371 209 L370 210 L366 210 L360 213 L354 219 L351 225 L351 228 L350 229 L350 241 L351 242 L351 245 L354 251 L360 257 L366 260 L371 260 L372 261 L374 261 L375 260 L380 260 L386 257 L391 252 L393 248 L393 246 L388 246 L387 248 L381 254 L379 255 L376 255 L375 256 L371 256 L370 255 L367 255 L363 253 L359 249 L359 248 L357 246 L357 244 L356 243 L355 238 L356 237 L395 237 L395 228 L394 227 L394 224 L392 220 L386 213 L380 210 L375 210 L374 209 Z
    M235 139 L240 139 L241 140 L243 140 L247 142 L251 146 L254 152 L254 155 L255 156 L255 163 L254 164 L254 167 L253 168 L253 170 L252 172 L245 179 L243 179 L242 180 L239 180 L238 181 L236 180 L233 180 L229 178 L224 173 L224 172 L222 170 L222 168 L221 167 L221 164 L220 163 L220 157 L221 156 L221 153 L222 152 L222 150 L223 148 L227 143 Z
    M469 214 L473 214 L474 215 L476 215 L480 217 L485 222 L487 226 L487 228 L488 229 L488 233 L489 234 L489 236 L488 237 L488 241 L487 242 L487 244 L485 248 L479 254 L477 255 L474 255 L473 256 L469 256 L468 255 L466 255 L462 253 L458 249 L455 243 L455 241 L454 240 L454 230 L455 229 L455 227 L457 223 L461 218 Z
    M212 211 L212 259 L213 260 L217 260 L217 218 L218 217 L219 217 L221 219 L221 221 L222 222 L223 227 L225 230 L225 232 L226 233 L227 238 L229 241 L229 243 L230 244 L231 249 L233 252 L234 257 L236 260 L244 260 L245 258 L245 256 L247 253 L247 251 L248 250 L249 245 L251 242 L251 240 L252 239 L253 234 L255 231 L255 229 L256 228 L257 223 L259 220 L259 218 L261 217 L262 218 L262 260 L267 260 L267 210 L257 210 L255 213 L255 215 L254 216 L254 218 L252 221 L252 223 L251 224 L251 226 L250 227 L249 232 L247 235 L247 237 L246 238 L246 240 L245 241 L244 246 L240 254 L238 253 L238 251 L237 250 L236 245 L234 242 L234 240 L233 239 L233 237 L232 236 L231 231 L229 228 L229 226 L228 225 L228 223 L227 222 L227 220 L226 219 L226 217 L224 214 L224 212 L223 210 L213 210 Z
    M283 210 L283 260 L288 260 L288 218 L289 217 L291 218 L292 223 L294 226 L294 228 L295 229 L296 234 L298 237 L298 239 L299 240 L299 242 L300 243 L301 248 L303 251 L303 253 L304 254 L304 256 L306 260 L314 260 L316 257 L316 255 L317 254 L317 252 L318 251 L318 249 L320 246 L320 244 L321 243 L322 238 L324 235 L324 233 L325 232 L326 227 L328 224 L329 219 L331 217 L332 218 L332 259 L333 260 L337 260 L337 210 L327 210 L325 214 L325 216 L324 217 L323 222 L321 225 L321 227 L320 228 L320 230 L319 231 L318 236 L316 239 L316 241 L315 242 L315 244 L314 245 L313 250 L310 254 L307 249 L307 247 L306 246 L305 241 L303 238 L303 236 L302 235 L302 233 L301 232 L300 227 L298 224 L298 222 L297 221 L296 216 L294 213 L294 211 L293 210 Z
    M158 210 L157 211 L157 259 L158 260 L167 260 L168 259 L188 219 L190 217 L191 217 L192 218 L192 260 L196 260 L197 259 L197 211 L196 210 L187 210 L186 211 L166 251 L164 253 L163 253 L162 252 L162 210 Z
    M506 210 L506 260 L516 260 L521 249 L523 247 L538 217 L540 218 L540 259 L541 260 L545 260 L545 210 L536 210 L535 211 L515 251 L513 253 L511 252 L511 210 Z
    M96 135 L91 135 L90 136 L90 138 L89 139 L89 141 L88 142 L88 144 L87 145 L87 147 L86 148 L86 150 L85 151 L85 153 L84 154 L84 156 L83 157 L83 159 L82 160 L82 162 L81 163 L80 168 L78 171 L77 176 L75 178 L73 176 L73 174 L71 171 L70 166 L68 163 L67 158 L65 155 L64 150 L62 147 L62 145 L61 144 L61 142 L59 139 L59 137 L58 135 L52 135 L53 136 L54 141 L56 144 L57 149 L59 152 L60 157 L64 165 L65 170 L67 173 L68 178 L72 186 L72 189 L71 190 L71 192 L70 193 L70 195 L69 197 L67 199 L58 199 L57 200 L57 204 L69 204 L73 201 L75 197 L75 195 L76 194 L76 192 L77 191 L78 186 L80 183 L80 181 L81 180 L81 178 L82 177 L82 175 L83 174 L84 169 L86 166 L86 164 L87 163 L87 161 L88 160 L89 155 L91 152 L91 150 L92 149 L92 147 L93 146 L94 141 L96 138 Z
    M106 135 L106 184 L111 184 L111 141 L112 140 L139 140 L140 141 L140 184 L145 184 L145 135 Z
    M123 209 L122 210 L117 210 L113 212 L106 218 L102 226 L102 231 L101 232 L101 238 L102 239 L102 244 L106 252 L110 256 L111 256 L113 258 L117 260 L122 260 L123 261 L126 261 L127 260 L131 260 L132 259 L134 259 L136 258 L143 251 L145 247 L145 244 L140 244 L138 249 L134 253 L130 255 L128 255 L127 256 L122 256 L121 255 L119 255 L115 253 L110 248 L108 244 L108 242 L107 241 L107 229 L108 228 L108 226 L110 222 L115 217 L119 215 L121 215 L122 214 L127 214 L128 215 L130 215 L134 217 L138 221 L140 226 L145 226 L145 223 L143 219 L136 212 L134 211 L132 211 L131 210 L127 210 L126 209 Z
    M23 134 L22 135 L19 135 L15 137 L13 139 L12 139 L7 145 L5 149 L5 151 L4 152 L4 167 L5 168 L6 173 L8 175 L8 176 L14 182 L20 185 L33 185 L34 184 L36 184 L38 183 L45 176 L47 172 L47 170 L48 169 L47 168 L43 168 L40 174 L36 178 L32 180 L28 180 L26 181 L25 180 L22 180 L21 179 L19 179 L17 177 L16 177 L11 171 L11 169 L9 165 L9 154 L10 153 L10 151 L12 147 L17 142 L18 142 L20 140 L23 140 L24 139 L30 139 L31 140 L33 140 L35 141 L41 147 L43 151 L47 151 L48 150 L47 149 L47 147 L46 145 L40 138 L34 135 L31 135 L30 134 Z
    M565 219 L569 216 L571 216 L572 215 L590 215 L591 216 L591 235 L590 236 L570 236 L568 235 L564 231 L564 229 L563 228 L563 223 Z
    M355 230 L356 229 L357 224 L362 218 L363 218 L367 215 L370 215 L371 214 L375 214 L376 215 L379 215 L381 216 L387 222 L389 226 L389 229 L390 230 L390 232 L389 233 L356 233 L355 232 Z
    M163 154 L164 153 L164 151 L166 147 L172 141 L174 140 L176 140 L177 139 L184 139 L185 140 L187 140 L189 141 L194 146 L194 147 L196 149 L196 151 L197 152 L197 155 L198 156 L197 157 L164 157 L163 156 Z
    M400 210 L400 215 L416 215 L417 216 L417 260 L422 260 L422 216 L423 215 L439 215 L439 210 Z
  "/>
</svg>
